<?xml version="1.0" encoding="UTF-8"?>
<svg width="732px" height="614px" viewBox="0 0 732 614" version="1.1" xmlns="http://www.w3.org/2000/svg" xmlns:xlink="http://www.w3.org/1999/xlink">
    <!-- Generator: Sketch 59.1 (86144) - https://sketch.com -->
    <title>p2</title>
    <desc>Created with Sketch.</desc>
    <g id="页面-1" stroke="none" stroke-width="1" fill="none" fill-rule="evenodd">
        <g id="切图" transform="translate(-964.000000, -243.000000)">
            <g id="p2" transform="translate(960.000000, 243.000000)">
                <g id="编组-4备份-2" transform="translate(535.000000, 398.000000)">
                    <rect id="矩形" fill="#EBEFFF" x="0.362078263" y="0" width="199" height="38" rx="1"></rect>
                    <rect id="矩形备份" fill="#B9C7FF" x="0.362078263" y="38" width="199" height="26" rx="1"></rect>
                    <rect id="矩形备份-6" fill="#EBEFFF" x="0.362078263" y="64" width="199" height="26" rx="1"></rect>
                    <rect id="矩形备份-7" fill="#B9C7FF" x="0.362078263" y="90" width="199" height="26" rx="1"></rect>
                    <g id="编组-7备份" transform="translate(27.362078, 102.000000)" fill="#000739">
                        <circle id="椭圆形" cx="1" cy="1" r="1"></circle>
                        <circle id="椭圆形备份-10" cx="4" cy="1" r="1"></circle>
                        <circle id="椭圆形备份-11" cx="7" cy="1" r="1"></circle>
                    </g>
                    <g id="编组-7备份-3" transform="translate(178.362078, 18.000000)" fill="#000739">
                        <circle id="椭圆形" cx="1" cy="1" r="1"></circle>
                        <circle id="椭圆形备份-10" cx="4" cy="1" r="1"></circle>
                        <circle id="椭圆形备份-11" cx="7" cy="1" r="1"></circle>
                    </g>
                    <rect id="矩形" stroke="#476AFA" stroke-width="1.5" x="0" y="0" width="199" height="116" rx="1"></rect>
                    <line x1="0" y1="-7.11930515e-15" x2="62" y2="38" id="路径-23" stroke="#476AFA" stroke-width="1.5"></line>
                    <text id="Age" font-family="PingFangSC-Regular, PingFang SC" font-size="10" font-weight="normal" fill="#000739">
                        <tspan x="40" y="16">Age</tspan>
                    </text>
                    <text id="A" font-family="PingFangSC-Regular, PingFang SC" font-size="10" font-weight="normal" fill="#000739">
                        <tspan x="28.3620783" y="55">A</tspan>
                    </text>
                    <text id="1" font-family="PingFangSC-Regular, PingFang SC" font-size="10" font-weight="normal" fill="#000739">
                        <tspan x="76.3620783" y="23">1</tspan>
                    </text>
                    <text id="2" font-family="PingFangSC-Regular, PingFang SC" font-size="10" font-weight="normal" fill="#000739">
                        <tspan x="110.362078" y="23">2</tspan>
                    </text>
                    <text id="3" font-family="PingFangSC-Regular, PingFang SC" font-size="10" font-weight="normal" fill="#000739">
                        <tspan x="145.362078" y="23">3</tspan>
                    </text>
                    <text id="B" font-family="PingFangSC-Regular, PingFang SC" font-size="10" font-weight="normal" fill="#000739">
                        <tspan x="28.3620783" y="81">B</tspan>
                    </text>
                    <text id="Cohort" font-family="PingFangSC-Regular, PingFang SC" font-size="10" font-weight="normal" fill="#000739">
                        <tspan x="3" y="30">Cohort</tspan>
                    </text>
                    <line x1="0" y1="38" x2="199" y2="38" id="路径-24" stroke="#476AFA"></line>
                    <line x1="0" y1="64" x2="199" y2="64" id="路径-24备份" stroke="#476AFA"></line>
                    <line x1="0" y1="90" x2="199" y2="90" id="路径-24备份-2" stroke="#476AFA"></line>
                    <line x1="62" y1="0" x2="62" y2="116" id="路径-25" stroke="#476AFA"></line>
                    <line x1="96" y1="0" x2="96" y2="116" id="路径-25备份" stroke="#476AFA"></line>
                    <line x1="131" y1="0" x2="131" y2="116" id="路径-25备份-2" stroke="#476AFA"></line>
                    <line x1="166" y1="0" x2="166" y2="116" id="路径-25备份-3" stroke="#476AFA"></line>
                </g>
                <g id="编组-4备份" transform="translate(524.000000, 411.000000)">
                    <rect id="矩形" fill="#EBEFFF" x="0.362078263" y="0" width="199" height="38" rx="1"></rect>
                    <rect id="矩形备份" fill="#B9C7FF" x="0.362078263" y="38" width="199" height="26" rx="1"></rect>
                    <rect id="矩形备份-6" fill="#EBEFFF" x="0.362078263" y="64" width="199" height="26" rx="1"></rect>
                    <rect id="矩形备份-7" fill="#B9C7FF" x="0.362078263" y="90" width="199" height="26" rx="1"></rect>
                    <g id="编组-7备份" transform="translate(27.362078, 102.000000)" fill="#000739">
                        <circle id="椭圆形" cx="1" cy="1" r="1"></circle>
                        <circle id="椭圆形备份-10" cx="4" cy="1" r="1"></circle>
                        <circle id="椭圆形备份-11" cx="7" cy="1" r="1"></circle>
                    </g>
                    <g id="编组-7备份-3" transform="translate(178.362078, 18.000000)" fill="#000739">
                        <circle id="椭圆形" cx="1" cy="1" r="1"></circle>
                        <circle id="椭圆形备份-10" cx="4" cy="1" r="1"></circle>
                        <circle id="椭圆形备份-11" cx="7" cy="1" r="1"></circle>
                    </g>
                    <rect id="矩形" stroke="#476AFA" stroke-width="1.5" x="0" y="0" width="199" height="116" rx="1"></rect>
                    <line x1="0" y1="-7.11930515e-15" x2="62" y2="38" id="路径-23" stroke="#476AFA" stroke-width="1.5"></line>
                    <text id="Age" font-family="PingFangSC-Regular, PingFang SC" font-size="10" font-weight="normal" fill="#000739">
                        <tspan x="40" y="16">Age</tspan>
                    </text>
                    <text id="A" font-family="PingFangSC-Regular, PingFang SC" font-size="10" font-weight="normal" fill="#000739">
                        <tspan x="28.3620783" y="55">A</tspan>
                    </text>
                    <text id="1" font-family="PingFangSC-Regular, PingFang SC" font-size="10" font-weight="normal" fill="#000739">
                        <tspan x="76.3620783" y="23">1</tspan>
                    </text>
                    <text id="2" font-family="PingFangSC-Regular, PingFang SC" font-size="10" font-weight="normal" fill="#000739">
                        <tspan x="110.362078" y="23">2</tspan>
                    </text>
                    <text id="3" font-family="PingFangSC-Regular, PingFang SC" font-size="10" font-weight="normal" fill="#000739">
                        <tspan x="145.362078" y="23">3</tspan>
                    </text>
                    <text id="B" font-family="PingFangSC-Regular, PingFang SC" font-size="10" font-weight="normal" fill="#000739">
                        <tspan x="28.3620783" y="81">B</tspan>
                    </text>
                    <text id="Cohort" font-family="PingFangSC-Regular, PingFang SC" font-size="10" font-weight="normal" fill="#000739">
                        <tspan x="3" y="30">Cohort</tspan>
                    </text>
                    <line x1="0" y1="38" x2="199" y2="38" id="路径-24" stroke="#476AFA"></line>
                    <line x1="0" y1="64" x2="199" y2="64" id="路径-24备份" stroke="#476AFA"></line>
                    <line x1="0" y1="90" x2="199" y2="90" id="路径-24备份-2" stroke="#476AFA"></line>
                    <line x1="62" y1="0" x2="62" y2="116" id="路径-25" stroke="#476AFA"></line>
                    <line x1="96" y1="0" x2="96" y2="116" id="路径-25备份" stroke="#476AFA"></line>
                    <line x1="131" y1="0" x2="131" y2="116" id="路径-25备份-2" stroke="#476AFA"></line>
                    <line x1="166" y1="0" x2="166" y2="116" id="路径-25备份-3" stroke="#476AFA"></line>
                </g>
                <g id="编组-4" transform="translate(512.637922, 424.000000)">
                    <rect id="矩形" fill="#EBEFFF" x="0.362078263" y="0" width="199" height="38" rx="1"></rect>
                    <rect id="矩形备份" fill="#B9C7FF" x="0.362078263" y="38" width="199" height="26" rx="1"></rect>
                    <rect id="矩形备份-6" fill="#EBEFFF" x="0.362078263" y="64" width="199" height="26" rx="1"></rect>
                    <rect id="矩形备份-7" fill="#B9C7FF" x="0.362078263" y="90" width="199" height="26" rx="1"></rect>
                    <g id="编组-7备份" transform="translate(27.362078, 102.000000)" fill="#000739">
                        <circle id="椭圆形" cx="1" cy="1" r="1"></circle>
                        <circle id="椭圆形备份-10" cx="4" cy="1" r="1"></circle>
                        <circle id="椭圆形备份-11" cx="7" cy="1" r="1"></circle>
                    </g>
                    <g id="编组-7备份-3" transform="translate(178.362078, 18.000000)" fill="#000739">
                        <circle id="椭圆形" cx="1" cy="1" r="1"></circle>
                        <circle id="椭圆形备份-10" cx="4" cy="1" r="1"></circle>
                        <circle id="椭圆形备份-11" cx="7" cy="1" r="1"></circle>
                    </g>
                    <rect id="矩形" stroke="#476AFA" stroke-width="1.5" x="0" y="0" width="199" height="116" rx="1"></rect>
                    <line x1="0" y1="-7.11930515e-15" x2="62" y2="38" id="路径-23" stroke="#476AFA" stroke-width="1.5"></line>
                    <text id="Age" font-family="PingFangSC-Regular, PingFang SC" font-size="10" font-weight="normal" fill="#000739">
                        <tspan x="40" y="16">Age</tspan>
                    </text>
                    <text id="A" font-family="PingFangSC-Regular, PingFang SC" font-size="10" font-weight="normal" fill="#000739">
                        <tspan x="28.3620783" y="55">A</tspan>
                    </text>
                    <text id="1" font-family="PingFangSC-Regular, PingFang SC" font-size="10" font-weight="normal" fill="#000739">
                        <tspan x="76.3620783" y="23">1</tspan>
                    </text>
                    <text id="2" font-family="PingFangSC-Regular, PingFang SC" font-size="10" font-weight="normal" fill="#000739">
                        <tspan x="110.362078" y="23">2</tspan>
                    </text>
                    <text id="3" font-family="PingFangSC-Regular, PingFang SC" font-size="10" font-weight="normal" fill="#000739">
                        <tspan x="145.362078" y="23">3</tspan>
                    </text>
                    <text id="B" font-family="PingFangSC-Regular, PingFang SC" font-size="10" font-weight="normal" fill="#000739">
                        <tspan x="28.3620783" y="81">B</tspan>
                    </text>
                    <text id="Cohort" font-family="PingFangSC-Regular, PingFang SC" font-size="10" font-weight="normal" fill="#000739">
                        <tspan x="3" y="30">Cohort</tspan>
                    </text>
                    <line x1="0" y1="38" x2="199" y2="38" id="路径-24" stroke="#476AFA"></line>
                    <line x1="0" y1="64" x2="199" y2="64" id="路径-24备份" stroke="#476AFA"></line>
                    <line x1="0" y1="90" x2="199" y2="90" id="路径-24备份-2" stroke="#476AFA"></line>
                    <line x1="62" y1="0" x2="62" y2="116" id="路径-25" stroke="#476AFA"></line>
                    <line x1="96" y1="0" x2="96" y2="116" id="路径-25备份" stroke="#476AFA"></line>
                    <line x1="131" y1="0" x2="131" y2="116" id="路径-25备份-2" stroke="#476AFA"></line>
                    <line x1="166" y1="0" x2="166" y2="116" id="路径-25备份-3" stroke="#476AFA"></line>
                </g>
                <path d="M97.5159705,30 C102.698897,30 106.637922,34.5968151 106.637922,42.5367684 C106.637922,43.9993914 105.394019,45.2530682 103.113531,46.0888528 C100.833044,46.9246374 98.3452388,47.1335835 95.6501168,46.9246374 C92.9549949,46.7156912 90.8818242,46.0888528 89.6379217,44.835176 C92.9549949,43.372553 94.6135315,41.2830916 94.6135315,38.5667917 C94.6135315,35.8504919 94.1988974,33.3431382 93.3696291,31.2536768 C94.8208486,30.4178923 96.064751,30 97.5159705,30 M94.1379217,26.5 C92.1379217,24.5 92.1379217,21.5 94.1379217,19.5 C96.1379217,17.5 99.1379217,17.5 101.137922,19.5 C103.137922,21.5 103.137922,24.5 101.137922,26.5 C99.1379217,28.5 96.1379217,28.5 94.1379217,26.5 M92.6379217,39.9626168 C92.6379217,41.5576324 91.2061036,42.953271 88.1379217,43.5514019 C85.0697399,44.1495327 82.2061036,44.1495327 79.1379217,43.5514019 C76.0697399,42.7538941 74.6379217,41.5576324 74.6379217,39.9626168 C74.6379217,32.3862928 78.5242854,28 83.6379217,28 C88.7515581,28 92.6379217,32.3862928 92.6379217,39.9626168 M87.1379217,23.5 C85.1379217,25.5 82.1379217,25.5 80.1379217,23.5 C78.1379217,21.5 78.1379217,18.5 80.1379217,16.5 C82.1379217,14.5 85.1379217,14.5 87.1379217,16.5 C89.1379217,18.5 89.1379217,21.5 87.1379217,23.5" id="形状" fill="#5F5AFF" fill-rule="nonzero"></path>
                <g id="咨询" transform="translate(88.637922, 0.000000)" fill="#5F5AFF" fill-rule="nonzero">
                    <path d="M17.81625,0 C18.47,0 19,0.5425 19,1.2125 L19,11.475 C19,12.14375 18.47125,12.535 17.81625,12.535 L12.0875,12.535 L10.0625,14.76125 C9.91537293,14.9128439 9.71312622,14.9983942 9.501875,14.9983942 C9.29062378,14.9983942 9.08837707,14.9128439 8.94125,14.76125 L6.90375,12.53625 L1.185,12.53625 C0.53125,12.53625 0.00125,12.1425 0.00125,11.47375 L0.00125,1.2125 C0.00125,0.89125 0.12625,0.5825 0.3475,0.355 C0.566889619,0.128618197 0.868503761,0.000578710226 1.18375,0 L17.81625,0 Z M8.95375,9.4425 C8.79344656,9.59205485 8.70743033,9.80480775 8.71875,10.02375 C8.71875,10.26 8.7875,10.45375 8.95375,10.62 C9.11422446,10.7731304 9.3282008,10.8574649 9.55,10.855 C9.77136818,10.857138 9.98483647,10.772827 10.145,10.62 C10.3126415,10.4681656 10.4042238,10.2497418 10.395,10.02375 C10.3994173,9.80577689 10.3139836,9.59558276 10.15875,9.4425 C9.99675139,9.28383669 9.77658929,9.19884598 9.55,9.2075 C9.32702802,9.19839134 9.11054896,9.28371223 8.95375,9.4425 Z M7.43125,1.68875 C6.8775,2.27 6.61375,3.04625 6.61375,4.015 L7.7075,4.015 C7.7075,3.33625 7.86,2.81 8.165,2.4225 C8.4975,1.96625 9.01,1.74375 9.7025,1.74375 C10.28375,1.74375 10.74,1.89625 11.05875,2.22875 C11.36375,2.53375 11.53,2.9625 11.53,3.51625 C11.53,3.90375 11.39125,4.26375 11.11375,4.61 C11.03125,4.72125 10.86375,4.8875 10.64375,5.11 C9.89625,5.7725 9.43875,6.3 9.24375,6.715 C9.07875,7.06125 8.99625,7.4625 8.99625,7.92 L8.99625,8.2375 L10.10375,8.2375 L10.10375,7.92 C10.10375,7.545 10.18625,7.21375 10.36625,6.90875 C10.50375,6.65875 10.7125,6.41 11.01625,6.14625 C11.62625,5.6075 12,5.24625 12.13875,5.08125 C12.4897763,4.61504414 12.6746001,4.0447306 12.66375,3.46125 C12.66375,2.63 12.40125,1.98 11.88875,1.50875 C11.35,1.01 10.64375,0.775 9.7575,0.775 C8.76,0.775 7.985,1.08 7.43125,1.68875 Z" id="形状"></path>
                </g>
                <text id="Query" font-family="PingFangSC-Regular, PingFang SC" font-size="18" font-weight="normal" fill="#000739">
                    <tspan x="67.6379217" y="66">Query</tspan>
                </text>
                <text id="Data" font-family="PingFangSC-Regular, PingFang SC" font-size="18" font-weight="normal" fill="#000739">
                    <tspan x="72.6379217" y="172">Data</tspan>
                </text>
                <rect id="矩形" stroke="#5F5AFF" stroke-width="2" x="73.6379217" y="124" width="41" height="29" rx="1"></rect>
                <line x1="87.6379217" y1="124" x2="87.6379217" y2="153" id="路径-4" stroke="#5F5AFF" stroke-width="1.5"></line>
                <line x1="100.637922" y1="124" x2="100.637922" y2="153" id="路径-4备份" stroke="#5F5AFF" stroke-width="1.5"></line>
                <line x1="73.6379217" y1="134" x2="114.637922" y2="134" id="路径-5" stroke="#5F5AFF" stroke-width="1.5"></line>
                <line x1="73.6379217" y1="143" x2="114.637922" y2="143" id="路径-5备份" stroke="#5F5AFF" stroke-width="1.5"></line>
                <path id="路径-6" d="M122.40617,47.3355615 C122.496987,46.9314264 122.898225,46.6774318 123.30236,46.7682487 L123.30236,46.7682487 L201.244,64.283 L202.190638,60.0743547 C202.266781,59.735516 202.59245,59.5145294 202.943297,59.5468149 L203.039438,59.5620012 C203.14786,59.5863658 203.249358,59.6345876 203.335892,59.7028478 L203.335892,59.7028478 L212.536692,66.960667 C212.844537,67.2035025 212.894029,67.6369546 212.647237,67.9288094 C212.55055,68.0431502 212.417354,68.12355 212.267642,68.1579409 L212.267642,68.1579409 L200.846291,70.7815689 C200.46415,70.8693515 200.074757,70.6410706 199.976557,70.2716893 C199.948953,70.1678577 199.946738,70.0597069 199.970088,69.9558019 L199.970088,69.9558019 L200.916,65.746 L122.973483,48.2317513 C122.603026,48.1485025 122.358729,47.8044139 122.390537,47.436357 Z" fill="#F1BB00" fill-rule="nonzero"></path>
                <path id="路径-8" d="M123.671585,130.951711 C124.035437,130.753761 124.490868,130.88825 124.688819,131.252103 C124.886769,131.615955 124.75228,132.071386 124.388427,132.269337 L124.388427,132.269337 L119.996343,134.658813 C119.632491,134.856763 119.17706,134.722274 118.979109,134.358421 C118.781158,133.994569 118.915648,133.539138 119.2795,133.341187 L119.2795,133.341187 Z M132.455753,126.17276 C132.819606,125.974809 133.275037,126.109299 133.472987,126.473151 C133.670938,126.837003 133.536448,127.292434 133.172596,127.490385 L133.172596,127.490385 L128.780512,129.879861 C128.41666,130.077811 127.961228,129.943322 127.763278,129.57947 C127.565327,129.215617 127.699817,128.760186 128.063669,128.562235 L128.063669,128.562235 Z M141.239922,121.393808 C141.603774,121.195857 142.059205,121.330347 142.257156,121.694199 C142.455107,122.058051 142.320617,122.513482 141.956765,122.711433 L141.956765,122.711433 L137.56468,125.100909 C137.200828,125.29886 136.745397,125.16437 136.547446,124.800518 C136.349496,124.436665 136.483985,123.981234 136.847838,123.783284 L136.847838,123.783284 Z M150.024091,116.614856 C150.387943,116.416905 150.843374,116.551395 151.041325,116.915247 C151.239275,117.279099 151.104786,117.73453 150.740933,117.932481 L150.740933,117.932481 L146.348849,120.321957 C145.984997,120.519908 145.529566,120.385418 145.331615,120.021566 C145.133664,119.657714 145.268154,119.202282 145.632006,119.004332 L145.632006,119.004332 Z M158.808259,111.835904 C159.172112,111.637953 159.627543,111.772443 159.825493,112.136295 C160.023444,112.500147 159.888954,112.955579 159.525102,113.153529 L159.525102,113.153529 L155.133018,115.543005 C154.769166,115.740956 154.313734,115.606466 154.115784,115.242614 C153.917833,114.878762 154.052323,114.423331 154.416175,114.22538 L154.416175,114.22538 Z M167.592428,107.056952 C167.95628,106.859001 168.411711,106.993491 168.609662,107.357343 C168.807613,107.721196 168.673123,108.176627 168.309271,108.374577 L168.309271,108.374577 L163.917186,110.764053 C163.553334,110.962004 163.097903,110.827514 162.899952,110.463662 C162.702002,110.09981 162.836491,109.644379 163.200344,109.446428 L163.200344,109.446428 Z M176.376597,102.278 C176.740449,102.08005 177.19588,102.214539 177.393831,102.578392 C177.591781,102.942244 177.457292,103.397675 177.093439,103.595626 L177.093439,103.595626 L172.701355,105.985101 C172.337503,106.183052 171.882072,106.048562 171.684121,105.68471 C171.48617,105.320858 171.62066,104.865427 171.984512,104.667476 L171.984512,104.667476 Z M185.160765,97.4990484 C185.524617,97.3010977 185.980049,97.4355875 186.177999,97.7994396 C186.37595,98.1632918 186.24146,98.618723 185.877608,98.8166737 L185.877608,98.8166737 L181.485524,101.20615 C181.121672,101.4041 180.66624,101.269611 180.46829,100.905758 C180.270339,100.541906 180.404829,100.086475 180.768681,99.8885243 L180.768681,99.8885243 Z M193.944934,92.7200965 C194.308786,92.5221458 194.764217,92.6566356 194.962168,93.0204878 C195.160119,93.38434 195.025629,93.8397711 194.661777,94.0377218 L194.661777,94.0377218 L190.269692,96.4271977 C189.90584,96.6251484 189.450409,96.4906587 189.252458,96.1268065 C189.054508,95.7629543 189.188997,95.3075231 189.55285,95.1095724 L189.55285,95.1095724 Z M202.729103,87.9411447 C203.092955,87.743194 203.548386,87.8776837 203.746337,88.2415359 C203.944287,88.6053881 203.809798,89.0608193 203.445945,89.25877 L203.445945,89.25877 L199.053861,91.6482459 C198.690009,91.8461966 198.234578,91.7117068 198.036627,91.3478546 C197.838676,90.9840024 197.973166,90.5285713 198.337018,90.3306206 L198.337018,90.3306206 Z M216.082557,80.8315446 C216.474132,80.8113942 216.796949,81.1048562 216.803587,81.4870102 C216.806188,81.6367279 216.758962,81.7849673 216.668997,81.909478 L216.668997,81.909478 L209.805729,91.4082259 C209.576094,91.7260394 209.132762,91.8108681 208.815518,91.597696 C208.726342,91.5377741 208.65342,91.4578754 208.602526,91.3643273 L208.602526,91.3643273 L203.762463,82.4678316 C203.581408,82.1350341 203.716149,81.7120924 204.063416,81.5231648 C204.161031,81.470058 204.269155,81.4394609 204.379226,81.4337967 L204.379226,81.4337967 Z" fill="#00A0FA" fill-rule="nonzero"></path>
                <path d="M201.637922,47 L637.637922,47 C638.190206,47 638.637922,47.4477153 638.637922,48 L638.637922,238 C638.637922,238.552285 638.190206,239 637.637922,239 L201.637922,239 C201.085637,239 200.637922,238.552285 200.637922,238 L200.637922,48 C200.637922,47.4477153 201.085637,47 201.637922,47 Z" id="矩形" stroke="#5644ED" stroke-width="2" stroke-dasharray="12"></path>
                <path d="M201.637922,266 L637.637922,266 C638.190206,266 638.637922,266.447715 638.637922,267 L638.637922,361 C638.637922,361.552285 638.190206,362 637.637922,362 L201.637922,362 C201.085637,362 200.637922,361.552285 200.637922,361 L200.637922,267 C200.637922,266.447715 201.085637,266 201.637922,266 Z" id="矩形备份-13" stroke="#EF5F08" stroke-width="2" stroke-dasharray="12"></path>
                <rect id="矩形" fill="#DEDEFF" x="219" y="55" width="144" height="47" rx="1"></rect>
                <rect id="矩形备份-10" fill="#DEDEFF" x="219" y="124" width="165" height="47" rx="1"></rect>
                <rect id="矩形备份-12" fill="#DEDEFF" x="271" y="184" width="113" height="47" rx="1"></rect>
                <rect id="矩形备份-11" fill="#DEDEFF" x="428" y="124" width="192" height="47" rx="1"></rect>
                <rect id="矩形备份-8" fill="#DEDEFF" x="384" y="55" width="105" height="47" rx="1"></rect>
                <rect id="矩形备份-9" fill="#DEDEFF" x="509" y="55" width="119" height="47" rx="1"></rect>
                <text id="Controller" font-family="PingFangSC-Regular, PingFang SC" font-size="18" font-weight="normal" fill="#5644ED">
                    <tspan x="249" y="85">Controller</tspan>
                </text>
                <text id="Compressor" font-family="PingFangSC-Regular, PingFang SC" font-size="18" font-weight="normal" fill="#5644ED">
                    <tspan x="251" y="154">Compressor</tspan>
                </text>
                <text id="Loader" font-family="PingFangSC-Regular, PingFang SC" font-size="18" font-weight="normal" fill="#5644ED">
                    <tspan x="298" y="214">Loader</tspan>
                </text>
                <text id="Cube" font-family="PingFangSC-Regular, PingFang SC" font-size="14" font-weight="normal" fill="#476AFA">
                    <tspan x="228.637922" y="328">Cube</tspan>
                </text>
                <text id="Month" transform="translate(53.679950, 404.272286) rotate(-49.000000) translate(-53.679950, -404.272286) " font-family="PingFangSC-Regular, PingFang SC" font-size="14" font-weight="normal" fill="#000739">
                    <tspan x="32.6799497" y="409.272286">Month</tspan>
                </text>
                <text id="Cohort" font-family="PingFangSC-Regular, PingFang SC" font-size="14" font-weight="normal" fill="#476AFA">
                    <tspan x="365" y="299">Cohort</tspan>
                </text>
                <text id="Local" font-family="PingFangSC-Medium, PingFang SC" font-size="22" font-weight="400" fill="#000739">
                    <tspan x="571" y="297">Local</tspan>
                </text>
                <text id="Storage" font-family="PingFangSC-Medium, PingFang SC" font-size="22" font-weight="400" fill="#000739">
                    <tspan x="546" y="330">Storage</tspan>
                </text>
                <text id="Single-Node" font-family="PingFangSC-Medium, PingFang SC" font-size="22" font-weight="400" fill="#000739">
                    <tspan x="494" y="225">Single  Node</tspan>
                </text>
                <text id="Dimension" font-family="PingFangSC-Regular, PingFang SC" font-size="14" font-weight="normal" fill="#476AFA">
                    <tspan x="365" y="337">Dimension</tspan>
                </text>
                <text id="Index" transform="translate(324.137922, 313.000000) rotate(-90.000000) translate(-324.137922, -313.000000) " font-family="PingFangSC-Regular, PingFang SC" font-size="14" font-weight="normal" fill="#476AFA">
                    <tspan x="306.637922" y="318">Index</tspan>
                </text>
                <text id="Executor" font-family="PingFangSC-Regular, PingFang SC" font-size="18" font-weight="normal" fill="#5644ED">
                    <tspan x="487" y="154">Executor</tspan>
                </text>
                <text id="Parser" font-family="PingFangSC-Regular, PingFang SC" font-size="18" font-weight="normal" fill="#5644ED">
                    <tspan x="410" y="85">Parser</tspan>
                </text>
                <text id="Planner" font-family="PingFangSC-Regular, PingFang SC" font-size="18" font-weight="normal" fill="#5644ED">
                    <tspan x="537" y="85">Planner</tspan>
                </text>
                <path id="路径-7" d="M284.696215,113.015455 L296.192017,113.326152 L290.11991,125.166423 L284.696215,113.015455 Z M289.888196,105.979737 L291.387648,106.020263 L291.252562,111.018438 L289.75311,110.977912 L289.888196,105.979737 Z" fill="#00A0FA" fill-rule="nonzero"></path>
                <path id="路径-7备份" d="M239.424592,250.747716 L240.924586,250.751716 L240.918,253.169 L245.918123,253.18204 L240.136144,265.166664 L234.418164,253.151374 L239.418,253.164 L239.424592,250.747716 Z M239.451258,240.747751 L240.951253,240.751751 L240.93792,245.751733 L239.437925,245.747733 L239.451258,240.747751 Z M239.477925,230.747787 L240.97792,230.751787 L240.964586,235.751769 L239.464592,235.747769 L239.477925,230.747787 Z M239.504592,220.747822 L241.004586,220.751822 L240.991253,225.751804 L239.491258,225.747804 L239.504592,220.747822 Z M239.531258,210.747858 L241.031253,210.751858 L241.017919,215.75184 L239.517925,215.74784 L239.531258,210.747858 Z M239.557925,200.747893 L241.057919,200.751893 L241.044586,205.751876 L239.544591,205.747876 L239.557925,200.747893 Z M239.584591,190.747929 L241.084586,190.751929 L241.071253,195.751911 L239.571258,195.747911 L239.584591,190.747929 Z M239.611258,180.747964 L241.111252,180.751964 L241.097919,185.751947 L239.597925,185.747947 L239.611258,180.747964 Z M239.637924,170.748 L241.137919,170.752 L241.124586,175.751982 L239.624591,175.747982 L239.637924,170.748 Z" fill="#00A0FA" fill-rule="nonzero"></path>
                <path id="路径-7备份-2" d="M256.512924,170.748 L258.012919,170.752 L257.793,253.169 L262.793123,253.18204 L257.011144,265.166664 L251.293164,253.151374 L256.293,253.164 L256.512924,170.748 Z" fill="#F1BB00" fill-rule="nonzero"></path>
                <path id="路径-7备份-3" d="M326.882794,231.333353 L332.724929,243.288769 L327.725,243.327 L327.8879,264.494231 L326.387944,264.505769 L326.225,243.338 L321.225269,243.377228 L326.882794,231.333353 Z" fill="#F1BB00" fill-rule="nonzero"></path>
                <path id="路径-7备份-4" d="M217.513269,350.571809 L218.744776,351.428191 L196.031,384.091 L203.781714,380.339437 L204.435213,381.689599 L192.907701,387.269098 L194.125562,374.520327 L195.618764,374.662969 L194.799,383.234 L217.513269,350.571809 Z" fill="#EF5F08" fill-rule="nonzero"></path>
                <path id="路径-7备份-5" d="M378.881538,348.894196 L380.366537,349.105804 L375.196,385.39 L380.43394,378.556048 L381.624487,379.468517 L373.833941,389.633247 L369.192704,377.697031 L370.590736,377.153426 L373.711,385.178 L378.881538,348.894196 Z" fill="#EF5F08" fill-rule="nonzero"></path>
                <path id="路径-7备份-6" d="M430.8059,309.141764 L536.762,385.582 L533.145364,377.768171 L534.506655,377.138182 L539.885421,388.760713 L527.159685,387.321963 L527.328199,385.831459 L535.883,386.798 L429.928291,310.358236 L430.8059,309.141764 Z" fill="#EF5F08" fill-rule="nonzero"></path>
                <path id="路径-9" d="M371.304588,75.25 L383.304588,81 L371.304588,86.75 L371.304,81.75 L362.637922,81.75 L362.637922,80.25 L371.304,80.25 L371.304588,75.25 Z" fill="#F1BB00" fill-rule="nonzero"></path>
                <path id="路径-9备份-3" d="M396.971255,142.25 L396.971,147.25 L426.637922,147.25 L426.637922,148.75 L396.971,148.75 L396.971255,153.75 L384.971255,148 L396.971255,142.25 Z" fill="#F1BB00" fill-rule="nonzero"></path>
                <path id="路径-9备份-4" d="M432.340964,172.600016 L426.190611,184.399832 L423.19,180.399 L383.587904,210.100013 L382.68794,208.899987 L422.29,179.199 L419.290886,175.199626 L432.340964,172.600016 Z" fill="#F1BB00" fill-rule="nonzero"></path>
                <path id="路径-9备份-5" d="M664.513879,126.957271 L664.623767,126.961888 L676.262246,128.331731 C676.651652,128.377564 676.920656,128.721027 676.863083,129.098878 C676.840528,129.24691 676.7691,129.385125 676.65952,129.492776 L676.65952,129.492776 L668.299861,137.705375 C668.02016,137.980155 667.56888,137.9894 667.291899,137.726024 C667.214041,137.651989 667.155557,137.560989 667.12108,137.460228 L667.12108,137.460228 L665.724,133.378 L622.380728,148.209609 C622.021481,148.332533 621.63324,148.167163 621.467738,147.83688 L621.428313,147.742807 C621.294214,147.3509 621.503209,146.924489 621.895115,146.790391 L621.895115,146.790391 L665.239,131.959 L663.842259,127.877786 C663.730757,127.551916 663.889042,127.196391 664.199766,127.038286 L664.29744,126.997004 C664.402581,126.961027 664.514306,126.949005 664.623767,126.961888 Z" fill="#F1BB00" fill-rule="nonzero"></path>
                <path id="路径-9备份" d="M497.304588,75.25 L509.304588,81 L497.304588,86.75 L497.304,81.75 L488.637922,81.75 L488.637922,80.25 L497.304,80.25 L497.304588,75.25 Z" fill="#F1BB00" fill-rule="nonzero"></path>
                <path id="路径-9备份-2" d="M569.387922,106 L569.387,111.666 L574.387922,111.666667 L568.637922,123.666667 L562.887922,111.666667 L567.887,111.666 L567.887922,106 L569.387922,106 Z" fill="#F1BB00" fill-rule="nonzero"></path>
                <rect id="矩形" stroke="#476AFA" stroke-width="1.5" x="219.637922" y="296" width="53" height="53" rx="1"></rect>
                <polyline id="路径-10" stroke="#476AFA" stroke-width="1.5" points="220.637922 296 237.637922 279 289.637922 279 289.637922 331 272.637922 348"></polyline>
                <line x1="272.637922" y1="296" x2="289.637922" y2="279" id="路径-11" stroke="#476AFA" stroke-width="1.5"></line>
                <rect id="矩形" stroke="#476AFA" stroke-width="1.5" x="309" y="279" width="32" height="67" rx="1"></rect>
                <polygon id="路径-12" stroke="#476AFA" stroke-width="1.5" points="360 279 360 308 428 308 428 284 423 279"></polygon>
                <polygon id="路径-12备份" stroke="#476AFA" stroke-width="1.5" points="360 317 360 346 438 346 438 322 433 317"></polygon>
                <circle id="椭圆形" fill="#000739" cx="465.137922" cy="314.5" r="1.5"></circle>
                <circle id="椭圆形备份-8" fill="#000739" cx="471.137922" cy="314.5" r="1.5"></circle>
                <circle id="椭圆形备份-9" fill="#000739" cx="477.137922" cy="314.5" r="1.5"></circle>
                <polyline id="路径-13" stroke="#5F5AFF" stroke-width="1.5" stroke-linecap="round" stroke-linejoin="round" points="697.637922 97 697.637922 134 734.637922 134"></polyline>
                <rect id="矩形" fill="#5F5AFF" x="702.637922" y="118" width="8" height="11" rx="1"></rect>
                <rect id="矩形备份-14" fill="#5F5AFF" x="714.637922" y="108" width="8" height="21" rx="1"></rect>
                <rect id="矩形备份-15" fill="#5F5AFF" x="726.637922" y="97" width="8" height="32" rx="1"></rect>
                <path id="路径-14" d="M721.941963,95.0167955 C722.223247,94.9230341 722.527282,95.0750513 722.621043,95.3563354 C722.657776,95.466535 722.657776,95.5856759 722.621043,95.6958754 L722.621043,95.6958754 L719.818721,104.10284 C719.72496,104.384125 719.420926,104.536142 719.139641,104.44238 C719.060574,104.416025 718.988728,104.371621 718.929794,104.312688 L718.929794,104.312688 L716.481,101.864 L703.991475,114.353553 C703.817909,114.52712 703.548484,114.546405 703.353616,114.411409 L703.284368,114.353553 C703.089106,114.158291 703.089106,113.841709 703.284368,113.646447 L703.284368,113.646447 L715.774,101.157 L713.325151,98.7080444 C713.138789,98.5216828 713.118082,98.2323965 713.26303,98.0231627 L713.325151,97.9488099 C713.384085,97.8898762 713.45593,97.8454731 713.534998,97.8191171 L713.534998,97.8191171 Z" fill="#5F5AFF" fill-rule="nonzero"></path>
                <path id="路径-15" d="M124.637922,380 L120.077097,394.973272 L115.725,390.842 L69.363228,439.688426 L67.9126154,438.311574 L114.274,389.465 L109.922809,385.335304 L124.637922,380 Z" fill="#476AFA" fill-rule="nonzero"></path>
                <path id="路径-15备份" d="M217.11645,431.54311 L231.137922,438.5 L217.159526,445.543044 L217.141,439.542 L68.6409986,439.999995 L68.6348448,438.000005 L217.134,437.542 L217.11645,431.54311 Z" fill="#476AFA" fill-rule="nonzero"></path>
                <path id="路径-15备份-2" d="M67.974029,438.994518 L69.9739989,439.005482 L69.215,577.505 L75.2145714,577.538588 L68.1379217,591.5 L61.2147818,577.461833 L67.215,577.494 L67.974029,438.994518 Z" fill="#476AFA" fill-rule="nonzero"></path>
                <polyline id="路径-16" stroke="#476AFA" stroke-width="2" points="111.637922 395 241.637922 395 241.637922 528 197.637922 569"></polyline>
                <polyline id="路径-17" stroke="#476AFA" stroke-width="2" points="241.637922 395 197.637922 439 197.637922 569 68.6379217 569"></polyline>
                <polyline id="路径-18" stroke="#476AFA" points="141.637922 395 98.6379217 439 98.6379217 569"></polyline>
                <polyline id="路径-18备份" stroke="#476AFA" points="176.637922 395 133.637922 439 133.637922 569"></polyline>
                <polyline id="路径-18备份-2" stroke="#476AFA" points="208.637922 395 165.637922 439 165.637922 569"></polyline>
                <polyline id="路径-19" stroke="#476AFA" points="82.6379217 424 212.637922 424 212.637922 555"></polyline>
                <polyline id="路径-19备份" stroke="#476AFA" points="96.6379217 410 227.637922 410 227.637922 541"></polyline>
                <polyline id="路径-20" stroke="#476AFA" points="68.6379217 474 197.637922 474 241.637922 431"></polyline>
                <polyline id="路径-20备份" stroke="#476AFA" points="68.6379217 504 197.637922 504 241.637922 461"></polyline>
                <polyline id="路径-20备份-2" stroke="#476AFA" points="68.6379217 536 197.637922 536 241.637922 493"></polyline>
                <text id="Diabetes-Type" transform="translate(10.000000, 494.395110) rotate(-90.000000) translate(-10.000000, -494.395110) " font-family="PingFangSC-Regular, PingFang SC" font-size="14" font-weight="normal" fill="#000739">
                    <tspan x="-37" y="499.39511">Diabetes Type</tspan>
                </text>
                <text id="Jan" font-family="PingFangSC-Regular, PingFang SC" font-size="12" font-weight="normal" fill="#000739">
                    <tspan x="47.6379217" y="430">Jan</tspan>
                </text>
                <text id="SE" transform="translate(86.000000, 583.500000) rotate(-90.000000) translate(-86.000000, -583.500000) " font-family="PingFangSC-Regular, PingFang SC" font-size="12" font-weight="normal" fill="#000739">
                    <tspan x="78" y="588">SE</tspan>
                </text>
                <text id="SW" transform="translate(118.500000, 585.500000) rotate(-90.000000) translate(-118.500000, -585.500000) " font-family="PingFangSC-Regular, PingFang SC" font-size="12" font-weight="normal" fill="#000739">
                    <tspan x="109" y="590">SW</tspan>
                </text>
                <text id="NE" transform="translate(150.500000, 584.500000) rotate(-90.000000) translate(-150.500000, -584.500000) " font-family="PingFangSC-Regular, PingFang SC" font-size="12" font-weight="normal" fill="#000739">
                    <tspan x="142" y="589">NE</tspan>
                </text>
                <text id="Type-1" font-family="PingFangSC-Regular, PingFang SC" font-size="12" font-weight="normal" fill="#000739">
                    <tspan x="26" y="463">Type 1</tspan>
                </text>
                <text id="Level-1" font-family="PingFangSC-Regular, PingFang SC" font-size="12" font-weight="normal" fill="#000739">
                    <tspan x="268.637922" y="413">Level 1</tspan>
                </text>
                <text id="City" font-family="PingFangSC-Regular, PingFang SC" font-size="12" font-weight="normal" fill="#000739">
                    <tspan x="333" y="412">City </tspan>
                </text>
                <text id="Block" font-family="PingFangSC-Regular, PingFang SC" font-size="12" font-weight="normal" fill="#000739">
                    <tspan x="329" y="529">Block </tspan>
                </text>
                <text id="District" font-family="PingFangSC-Regular, PingFang SC" font-size="12" font-weight="normal" fill="#000739">
                    <tspan x="324" y="454">District </tspan>
                </text>
                <text id="Disease" font-family="PingFangSC-Regular, PingFang SC" font-size="12" font-weight="normal" fill="#000739">
                    <tspan x="382" y="412">Disease</tspan>
                </text>
                <text id="Year" font-family="PingFangSC-Regular, PingFang SC" font-size="12" font-weight="normal" fill="#000739">
                    <tspan x="450" y="412">Year</tspan>
                </text>
                <text id="Month" font-family="PingFangSC-Regular, PingFang SC" font-size="12" font-weight="normal" fill="#000739">
                    <tspan x="450" y="454">Month</tspan>
                </text>
                <text id="Chronic" font-family="PingFangSC-Regular, PingFang SC" font-size="12" font-weight="normal" fill="#000739">
                    <tspan x="382" y="454">Chronic</tspan>
                </text>
                <text id="Disease" font-family="PingFangSC-Regular, PingFang SC" font-size="12" font-weight="normal" fill="#000739">
                    <tspan x="382" y="473">Disease</tspan>
                </text>
                <text id="Diabete" font-family="PingFangSC-Regular, PingFang SC" font-size="12" font-weight="normal" fill="#000739">
                    <tspan x="382" y="529">Diabete</tspan>
                </text>
                <text id="Dimension-Tree" font-family="PingFangSC-Regular, PingFang SC" font-size="16" font-weight="normal" fill="#476AFA">
                    <tspan x="377.637922" y="547">Dimension Tree</tspan>
                </text>
                <text id="Day" font-family="PingFangSC-Regular, PingFang SC" font-size="12" font-weight="normal" fill="#000739">
                    <tspan x="455" y="529">Day</tspan>
                </text>
                <text id="Level-2" font-family="PingFangSC-Regular, PingFang SC" font-size="12" font-weight="normal" fill="#000739">
                    <tspan x="266.637922" y="464">Level 2</tspan>
                </text>
                <text id="Level-3" font-family="PingFangSC-Regular, PingFang SC" font-size="12" font-weight="normal" fill="#000739">
                    <tspan x="267.637922" y="525">Level 3</tspan>
                </text>
                <text id="Type-2" font-family="PingFangSC-Regular, PingFang SC" font-size="12" font-weight="normal" fill="#000739">
                    <tspan x="23" y="494">Type 2</tspan>
                </text>
                <text id="GDM" font-family="PingFangSC-Regular, PingFang SC" font-size="12" font-weight="normal" fill="#000739">
                    <tspan x="33" y="525">GDM</tspan>
                </text>
                <text id="District" font-family="PingFangSC-Regular, PingFang SC" font-size="14" font-weight="normal" fill="#000739">
                    <tspan x="90.6379217" y="613">District</tspan>
                </text>
                <text id="Feb" font-family="PingFangSC-Regular, PingFang SC" font-size="12" font-weight="normal" fill="#000739">
                    <tspan x="66.6379217" y="416">Feb</tspan>
                </text>
                <g id="编组-7" transform="translate(88.637922, 399.000000)" fill="#000739">
                    <circle id="椭圆形" cx="1" cy="1" r="1"></circle>
                    <circle id="椭圆形备份-10" cx="4" cy="1" r="1"></circle>
                    <circle id="椭圆形备份-11" cx="7" cy="1" r="1"></circle>
                </g>
                <g id="编组-7备份-4" transform="translate(54.000000, 553.000000)" fill="#000739">
                    <circle id="椭圆形" cx="1" cy="1" r="1"></circle>
                    <circle id="椭圆形备份-10" cx="4" cy="1" r="1"></circle>
                    <circle id="椭圆形备份-11" cx="7" cy="1" r="1"></circle>
                </g>
                <g id="编组-7备份-2" transform="translate(179.637922, 583.000000) rotate(-270.000000) translate(-179.637922, -583.000000) translate(175.637922, 582.000000)" fill="#101645">
                    <circle id="椭圆形" cx="1" cy="1" r="1"></circle>
                    <circle id="椭圆形备份-10" cx="4" cy="1" r="1"></circle>
                    <circle id="椭圆形备份-11" cx="7" cy="1" r="1"></circle>
                </g>
                <rect id="矩形" stroke="#476AFA" stroke-width="1.5" x="261.637922" y="392" width="236" height="160" rx="1"></rect>
                <line x1="318.637922" y1="400" x2="318.637922" y2="537" id="路径-21" stroke="#476AFA" stroke-linecap="round" stroke-linejoin="round" stroke-dasharray="4"></line>
                <line x1="346.5" y1="416" x2="346.5" y2="442" id="路径-22" stroke="#476AFA"></line>
                <line x1="466.137922" y1="416" x2="466.137922" y2="442" id="路径-22备份-4" stroke="#476AFA"></line>
                <line x1="403.5" y1="416" x2="403.5" y2="442.5" id="路径-22备份-2" stroke="#476AFA"></line>
                <line x1="346.5" y1="459.5" x2="346.5" y2="516.5" id="路径-22备份" stroke="#476AFA"></line>
                <line x1="466.5" y1="462.5" x2="466" y2="516.5" id="路径-22备份-5" stroke="#476AFA"></line>
                <line x1="403.5" y1="477.5" x2="403.5" y2="516.5" id="路径-22备份-3" stroke="#476AFA"></line>
            </g>
        </g>
    </g>
</svg>